# xmcd CD database file
#
# Track frame offsets:
#	150
#	14810
#	68973
#	90401
#	122999
#	151712
#	187713
#	207415
#	229339
#	265698
#	302427
#	322577
#	332302
#	340083
#
# Disc length: 4777 seconds
#
# Revision: 0
# Processed by: cddbd v1.5.2PL0 Copyright (c) Steve Scherf et al.
# Submitted via: CDex 1.70beta2
#
DISCID=ad12a70e
DTITLE=Sueddeutsche Zeitung - Jazz - Free minds
DYEAR=2011
DGENRE=Jazz
TTITLE0=Billie Holiday: Strange Fruit
TTITLE1=Charles Mingus: Haitian Fight Song
TTITLE2=John Coltrane: Giant Steps
TTITLE3=The Miles Davis Quintet: Freedom Jazz Dance
TTITLE4=Ornette Coleman: Free
TTITLE5=Donald Byrd: Tico Tico
TTITLE6=Lionel Loueke: Ami O
TTITLE7=Gilad Atzmon: Tutu Tango
TTITLE8=Max Roach: All Africa
TTITLE9=David Murray feat. Taj Mahal: Africa
TTITLE10=Zentralquartett: Der alte Thüringer
TTITLE11=Albert Mangelsdorff: For Peter
TTITLE12=Art Ensemble Of Chicago: Nice Guys
TTITLE13=Cecil Taylor: N and R (Love Is Friends)
EXTD=YEAR: 2011
EXTT0=
EXTT1=
EXTT2=
EXTT3=
EXTT4=
EXTT5=
EXTT6=
EXTT7=
EXTT8=
EXTT9=
EXTT10=
EXTT11=
EXTT12=
EXTT13=
PLAYORDER=
